<?xml version="1.0" ?><!DOCTYPE svg  PUBLIC '-//W3C//DTD SVG 1.1//EN'  'http://www.w3.org/Graphics/SVG/1.1/DTD/svg11.dtd'><svg enable-background="new 0 0 128 128" height="128px" id="Layer_1" version="1.1" viewBox="0 0 128 128" width="128px" xml:space="preserve" xmlns="http://www.w3.org/2000/svg" xmlns:xlink="http://www.w3.org/1999/xlink"><g><path d="M64.046,114.027c-27.642,0-50.129-22.486-50.129-50.128c0-27.64,22.487-50.127,50.129-50.127s50.129,22.487,50.129,50.127   C114.175,91.541,91.688,114.027,64.046,114.027z M64.046,17.772c-25.436,0-46.129,20.692-46.129,46.127   c0,25.435,20.693,46.128,46.129,46.128s46.129-20.693,46.129-46.128C110.175,38.464,89.481,17.772,64.046,17.772z"/></g><path d="M69.979,91.465H55.405V65.898h-5.289v-12.81h5.289v-3.291c0-8.935,4.528-13.465,13.459-13.465h9.061v12.814h-6.41  c-0.921,0-1.301,0.113-1.427,0.165c-0.062,0.198-0.093,0.656-0.093,1.364l-0.009,2.412h8.213l-1.36,12.81h-6.859V91.465z   M59.405,87.465h6.574V61.899h7.262l0.511-4.811h-7.779l0.022-6.419c0-2.865,0.669-5.522,5.52-5.522h2.41v-4.814h-5.061  c-6.719,0-9.459,2.742-9.459,9.465v7.291h-5.289v4.811h5.289V87.465z"/></svg>