<?xml version="1.0" ?><!DOCTYPE svg  PUBLIC '-//W3C//DTD SVG 1.1//EN'  'http://www.w3.org/Graphics/SVG/1.1/DTD/svg11.dtd'><svg enable-background="new 0 0 128 128" height="128px" id="Layer_1" version="1.1" viewBox="0 0 128 128" width="128px" xml:space="preserve" xmlns="http://www.w3.org/2000/svg" xmlns:xlink="http://www.w3.org/1999/xlink"><path d="M56.771,85.34c-5.303,0-10.463-1.512-14.924-4.373c-0.785-0.504-1.118-1.484-0.801-2.363  c0.316-0.877,1.195-1.412,2.126-1.305c0.599,0.074,1.223,0.109,1.909,0.109c2.14,0,4.205-0.404,6.125-1.189  c-2.447-1.324-4.362-3.561-5.249-6.336c-0.174-0.547-0.104-1.135,0.179-1.619c-2.133-2.029-3.441-4.893-3.441-7.998v-0.111  c0-0.708,0.374-1.362,0.983-1.723c0.032-0.019,0.065-0.037,0.099-0.054c-0.654-1.425-1.006-2.993-1.006-4.612  c0-1.949,0.517-3.867,1.494-5.547c0.33-0.567,0.918-0.937,1.572-0.988c0.648-0.054,1.293,0.223,1.707,0.731  c3.733,4.584,9.043,7.592,14.825,8.465c0.094-6,5.006-10.853,11.03-10.853c2.641,0,5.202,0.958,7.19,2.661  c1.436-0.376,2.813-0.952,4.108-1.717c0.281-0.169,0.607-0.271,0.957-0.283c0.024-0.001,0.031-0.003,0.078-0.001  c1.103,0.002,1.996,0.896,1.996,2c0,0.265-0.052,0.517-0.145,0.748c-0.097,0.289-0.206,0.573-0.326,0.852  c0.461,0.075,0.893,0.311,1.209,0.686c0.574,0.682,0.628,1.659,0.134,2.399c-1.146,1.718-2.536,3.238-4.141,4.532  c0.001,0.066,0.001,0.133,0.001,0.199C84.462,71.262,74.104,85.34,56.771,85.34z M50.834,80.586c1.927,0.498,3.92,0.754,5.937,0.754  c14.83,0,23.691-12.045,23.691-23.689c0-0.362-0.009-0.719-0.025-1.075c-0.025-0.561,0.186-1.101,0.572-1.493  c-0.527-0.212-0.955-0.646-1.148-1.213c-0.165-0.487-0.132-1.001,0.063-1.446c-0.523-0.018-1.026-0.239-1.393-0.63  c-1.323-1.41-3.194-2.219-5.132-2.219c-3.877,0-7.031,3.152-7.031,7.027c0,0.54,0.062,1.08,0.184,1.606  c0.141,0.611-0.013,1.253-0.416,1.734c-0.402,0.481-1.007,0.761-1.633,0.713c-6.64-0.331-12.923-3.063-17.695-7.611  c-0.024,0.239-0.037,0.48-0.037,0.722c0,2.357,1.169,4.545,3.126,5.853c0.742,0.495,1.066,1.422,0.795,2.271  c-0.271,0.848-1.022,1.421-1.963,1.391c-0.474-0.014-0.946-0.059-1.415-0.135c0.909,2.018,2.747,3.557,5.017,4.012  c0.908,0.184,1.571,0.965,1.605,1.889c0.033,0.926-0.572,1.752-1.465,2c-0.382,0.105-0.771,0.191-1.166,0.254  c1.271,1.369,3.068,2.209,5.023,2.242c0.847,0.016,1.592,0.561,1.861,1.363s0.006,1.688-0.66,2.209  C55.504,78.707,53.244,79.873,50.834,80.586z"/><g><path d="M64.007,114.025c-27.642,0-50.129-22.486-50.129-50.126c0-27.642,22.487-50.129,50.129-50.129s50.129,22.487,50.129,50.129   C114.136,91.539,91.648,114.025,64.007,114.025z M64.007,17.77c-25.436,0-46.129,20.693-46.129,46.129   c0,25.435,20.693,46.126,46.129,46.126s46.129-20.691,46.129-46.126C110.136,38.463,89.442,17.77,64.007,17.77z"/></g></svg>