<?xml version="1.0" ?><!DOCTYPE svg  PUBLIC '-//W3C//DTD SVG 1.1//EN'  'http://www.w3.org/Graphics/SVG/1.1/DTD/svg11.dtd'><svg enable-background="new 0 0 128 128" height="128px" id="Layer_1" version="1.1" viewBox="0 0 128 128" width="128px" xml:space="preserve" xmlns="http://www.w3.org/2000/svg" xmlns:xlink="http://www.w3.org/1999/xlink"><g><path d="M64.05,114.135c-27.642,0-50.129-22.486-50.129-50.128c0-27.642,22.487-50.129,50.129-50.129s50.129,22.487,50.129,50.129   C114.179,91.648,91.691,114.135,64.05,114.135z M64.05,17.877c-25.436,0-46.129,20.693-46.129,46.129   c0,25.435,20.693,46.128,46.129,46.128s46.129-20.693,46.129-46.128C110.179,38.571,89.485,17.877,64.05,17.877z"/></g><g><path d="M64.05,77.945c-6.798,0-12.328-5.529-12.328-12.328c0-6.797,5.53-12.328,12.328-12.328c6.797,0,12.326,5.53,12.326,12.328   C76.376,72.416,70.847,77.945,64.05,77.945z M64.05,57.29c-4.592,0-8.328,3.736-8.328,8.328c0,4.592,3.736,8.328,8.328,8.328   c4.591,0,8.326-3.736,8.326-8.328C72.376,61.026,68.641,57.29,64.05,57.29z"/><path d="M79.894,91.074H48.206c-6.617,0-12-5.383-12-12V48.94c0-6.617,5.383-12,12-12h31.688c6.617,0,12,5.383,12,12v30.134   C91.894,85.691,86.511,91.074,79.894,91.074z M48.206,40.94c-4.411,0-8,3.589-8,8v30.134c0,4.412,3.589,8,8,8h31.688   c4.411,0,8-3.588,8-8V48.94c0-4.411-3.589-8-8-8H48.206z"/><path d="M55.722,60.754h-16.85c-1.104,0-2-0.896-2-2s0.896-2,2-2h16.85c1.104,0,2,0.896,2,2S56.826,60.754,55.722,60.754z"/><path d="M89.415,60.754H72.376c-1.104,0-2-0.896-2-2s0.896-2,2-2h17.039c1.104,0,2,0.896,2,2S90.52,60.754,89.415,60.754z"/><g><path d="M75.2,46.934c0-1.1,0.899-2,2-2h3.396c1.101,0,2,0.9,2,2v3.396c0,1.1-0.899,2-2,2H77.2c-1.101,0-2-0.9-2-2V46.934z"/></g></g></svg>